<svg xmlns="http://www.w3.org/2000/svg" xmlns:xlink="http://www.w3.org/1999/xlink" viewBox="0 0 280 250" preserveAspectRatio="xMidYMid" style="display: block; shape-rendering: auto; background: transparent;" width="280" height="250"><style type="text/css">
  .ld-text text {
    text-anchor: middle;
    dominant-baseline: middle;
    font-size: 45px;
    opacity: 0;
    user-select: none;
    pointer-events: none;
  }
</style>
<g style="transform-origin:140px 125px;transform:scale(1)" class="ld-text">
<g transform="translate(140,125)">
  <g transform="scale(0.5625) translate(0,0)"><g class="path" style="opacity: 1; animation: 5.88235s linear -3.55882s infinite normal forwards running animate-em0iv040woh; transform-box: view-box; transform-origin: -203.88px -3.15px;"><path d="M14.80 49.71L7.20 49.71L7.20-6.29L14.80-6.29L14.80 17.63L42.40 17.63L42.40-6.29L50-6.29L50 49.71L42.40 49.71L42.40 24.19L14.80 24.19L14.80 49.71" style="fill: rgb(255, 255, 255);" transform="translate(-232.480,-24.857)"></path></g><g class="path" style="opacity: 1; animation: 5.88235s linear -3.23529s infinite normal forwards running animate-em0iv040woh; transform-box: view-box; transform-origin: -153.32px 4.05px;"><path d="M80.24 50.67L80.24 50.67Q71.28 50.67 66.04 44.95Q60.80 39.23 60.80 28.91L60.80 28.91Q60.80 22.67 63.16 17.75Q65.52 12.83 69.76 9.99Q74 7.15 79.60 7.15L79.60 7.15Q85.60 7.15 89.56 9.75Q93.52 12.35 95.52 16.75Q97.52 21.15 97.52 26.43L97.52 26.43Q97.52 29.23 97.28 31.87L97.28 31.87L68.16 31.87Q68.88 37.71 72.24 40.99Q75.60 44.27 81.12 44.27L81.12 44.27Q84.72 44.27 87.60 43.51Q90.48 42.75 93.12 41.55L93.12 41.55L94.80 47.71Q91.92 48.99 88.32 49.83Q84.72 50.67 80.24 50.67 zM68.08 26.03L68.08 26.03L90.88 26.03Q90.88 19.95 87.84 16.67Q84.80 13.39 79.44 13.39L79.44 13.39Q74.80 13.39 71.76 16.63Q68.72 19.87 68.08 26.03" style="fill: currentColor;" transform="translate(-232.480,-24.857)"></path></g><g class="path" style="opacity: 1; animation: 5.88235s linear -2.91176s infinite normal forwards running animate-em0iv040woh; transform-box: view-box; transform-origin: -115.12px -4.27px;"><path d="M119.76 50.67L119.76 50.67Q116.08 50.67 113.12 49.27Q110.16 47.87 108.44 44.75Q106.72 41.63 106.72 36.67L106.72 36.67L106.72-9.49L113.92-9.49L113.92 35.95Q113.92 40.27 115.72 42.35Q117.52 44.43 120.72 44.43L120.72 44.43Q122.24 44.43 123.72 44.07Q125.20 43.71 126.24 43.23L126.24 43.23L128 49.07Q126.56 49.71 124.44 50.19Q122.32 50.67 119.76 50.67" style="fill: rgb(255, 255, 255);" transform="translate(-232.480,-24.857)"></path></g><g class="path" style="opacity: 1; animation: 5.88235s linear -2.58824s infinite normal forwards running animate-em0iv040woh; transform-box: view-box; transform-origin: -88.24px -4.27px;"><path d="M146.64 50.67L146.64 50.67Q142.96 50.67 140 49.27Q137.04 47.87 135.32 44.75Q133.60 41.63 133.60 36.67L133.60 36.67L133.60-9.49L140.80-9.49L140.80 35.95Q140.80 40.27 142.60 42.35Q144.40 44.43 147.60 44.43L147.60 44.43Q149.12 44.43 150.60 44.07Q152.08 43.71 153.12 43.23L153.12 43.23L154.88 49.07Q153.44 49.71 151.32 50.19Q149.20 50.67 146.64 50.67" style="fill: rgb(255, 255, 255);" transform="translate(-232.480,-24.857)"></path></g><g class="path" style="opacity: 1; animation: 5.88235s linear -2.26471s infinite normal forwards running animate-em0iv040woh; transform-box: view-box; transform-origin: -54.48px 4.05px;"><path d="M178 50.67L178 50.67Q172.08 50.67 167.36 47.91Q162.64 45.15 159.96 40.23Q157.28 35.31 157.28 28.91L157.28 28.91Q157.28 22.19 160 17.31Q162.72 12.43 167.44 9.79Q172.16 7.15 178 7.15L178 7.15Q183.84 7.15 188.52 9.79Q193.20 12.43 195.96 17.27Q198.72 22.11 198.72 28.75L198.72 28.75Q198.72 35.39 196 40.31Q193.28 45.23 188.60 47.95Q183.92 50.67 178 50.67 zM178 44.27L178 44.27Q184.32 44.27 187.84 39.99Q191.36 35.71 191.36 28.91L191.36 28.91Q191.36 24.75 189.60 21.27Q187.84 17.79 184.84 15.67Q181.84 13.55 178 13.55L178 13.55Q171.68 13.55 168.16 17.71Q164.64 21.87 164.64 28.75L164.64 28.75Q164.64 32.91 166.40 36.47Q168.16 40.03 171.16 42.15Q174.16 44.27 178 44.27" style="fill: rgb(255, 255, 255);" transform="translate(-232.480,-24.857)"></path></g><g class="path" style="opacity: 1; animation: 5.88235s linear -1.94118s infinite normal forwards running animate-em0iv040woh; transform-box: view-box; transform-origin: 31.16px -3.43px;"><path d="M251.76 49.71L242.32 49.71L227.12-4.45L234.64-6.85L247.28 41.63L259.20-0.45L268.72-0.45L280.56 41.63L293.12-6.61L300.16-4.45L285.04 49.71L275.60 49.71L263.76 7.63L251.76 49.71" style="fill: rgb(255, 255, 255);" transform="translate(-232.480,-24.857)"></path></g><g class="path" style="opacity: 1; animation: 5.88235s linear -1.61765s infinite normal forwards running animate-em0iv040woh; transform-box: view-box; transform-origin: 90.4px 4.05px;"><path d="M322.88 50.67L322.88 50.67Q316.96 50.67 312.24 47.91Q307.52 45.15 304.84 40.23Q302.16 35.31 302.16 28.91L302.16 28.91Q302.16 22.19 304.88 17.31Q307.60 12.43 312.32 9.79Q317.04 7.15 322.88 7.15L322.88 7.15Q328.72 7.15 333.40 9.79Q338.08 12.43 340.84 17.27Q343.60 22.11 343.60 28.75L343.60 28.75Q343.60 35.39 340.88 40.31Q338.16 45.23 333.48 47.95Q328.80 50.67 322.88 50.67 zM322.88 44.27L322.88 44.27Q329.20 44.27 332.72 39.99Q336.24 35.71 336.24 28.91L336.24 28.91Q336.24 24.75 334.48 21.27Q332.72 17.79 329.72 15.67Q326.72 13.55 322.88 13.55L322.88 13.55Q316.56 13.55 313.04 17.71Q309.52 21.87 309.52 28.75L309.52 28.75Q309.52 32.91 311.28 36.47Q313.04 40.03 316.04 42.15Q319.04 44.27 322.88 44.27" style="fill: rgb(255, 255, 255);" transform="translate(-232.480,-24.857)"></path></g><g class="path" style="opacity: 1; animation: 5.88235s linear -1.29412s infinite normal forwards running animate-em0iv040woh; transform-box: view-box; transform-origin: 133.08px 3.57px;"><path d="M360.40 49.71L353.20 49.71L353.20 8.11L360.16 8.11L360.16 17.15Q361.20 14.51 362.96 12.23Q364.72 9.95 367.36 8.55Q370 7.15 373.52 7.15L373.52 7.15Q374.72 7.15 375.92 7.27Q377.12 7.39 377.92 7.63L377.92 7.63L375.76 15.07Q374.24 14.43 372.16 14.43L372.16 14.43Q369.20 14.43 366.52 16.11Q363.84 17.79 362.12 21.31Q360.40 24.83 360.40 30.27L360.40 30.27L360.40 49.71" style="fill: rgb(255, 255, 255);" transform="translate(-232.480,-24.857)"></path></g><g class="path" style="opacity: 1; animation: 5.88235s linear -0.970588s infinite normal forwards running animate-em0iv040woh; transform-box: view-box; transform-origin: 162.88px -4.27px;"><path d="M397.76 50.67L397.76 50.67Q394.08 50.67 391.12 49.27Q388.16 47.87 386.44 44.75Q384.72 41.63 384.72 36.67L384.72 36.67L384.72-9.49L391.92-9.49L391.92 35.95Q391.92 40.27 393.72 42.35Q395.52 44.43 398.72 44.43L398.72 44.43Q400.24 44.43 401.72 44.07Q403.20 43.71 404.24 43.23L404.24 43.23L406 49.07Q404.56 49.71 402.44 50.19Q400.32 50.67 397.76 50.67" style="fill: rgb(255, 255, 255);" transform="translate(-232.480,-24.857)"></path></g><g class="path" style="opacity: 1; animation: 5.88235s linear -0.647059s infinite normal forwards running animate-em0iv040woh; transform-box: view-box; transform-origin: 197.44px -4.27px;"><path d="M427.36 50.67L427.36 50.67Q422.24 50.67 418 48.03Q413.76 45.39 411.28 40.55Q408.80 35.71 408.80 29.15L408.80 29.15Q408.80 22.83 411.32 17.87Q413.84 12.91 418.04 10.03Q422.24 7.15 427.28 7.15L427.28 7.15Q431.44 7.15 434.44 8.83Q437.44 10.51 439.12 12.27L439.12 12.27L439.12-9.49L446.32-9.49L446.32 39.63Q446.32 42.67 447.80 43.59Q449.28 44.51 451.04 44.51L451.04 44.51L449.52 50.11Q441.92 50.11 440.24 44.03L440.24 44.03Q438.48 46.51 435.32 48.59Q432.16 50.67 427.36 50.67 zM428.96 44.27L428.96 44.27Q431.92 44.27 434.60 42.87Q437.28 41.47 439.12 39.23L439.12 39.23L439.12 18.59Q437.60 16.67 434.88 15.03Q432.16 13.39 428.88 13.39L428.88 13.39Q425.04 13.39 422.16 15.47Q419.28 17.55 417.72 21.03Q416.16 24.51 416.16 28.91L416.16 28.91Q416.16 33.31 417.84 36.79Q419.52 40.27 422.44 42.27Q425.36 44.27 428.96 44.27" style="fill: rgb(255, 255, 255);" transform="translate(-232.480,-24.857)"></path></g><g class="path" style="opacity: 1; animation: 5.88235s linear -0.323529s infinite normal forwards running animate-em0iv040woh; transform-box: view-box; transform-origin: 234.24px -12.59px;"><path d="M469.68 33.15L463.76 33.15L462.72 11.31L462.72-8.61L470.72-8.61L470.72 11.31L469.68 33.15" style="fill: rgb(255, 255, 255);" transform="translate(-232.480,-24.857)"></path></g><g class="path" style="opacity: 1; animation: 5.88235s linear 0s infinite normal forwards running animate-em0iv040woh; transform-box: view-box; transform-origin: 234.32px 20.45px;"><path d="M466.80 50.67L466.80 50.67Q464.64 50.67 463.04 49.07Q461.44 47.47 461.44 45.31L461.44 45.31Q461.44 42.83 462.88 41.39Q464.32 39.95 466.80 39.95L466.80 39.95Q468.88 39.95 470.52 41.55Q472.16 43.15 472.16 45.31L472.16 45.31Q472.16 47.71 470.64 49.19Q469.12 50.67 466.80 50.67" style="fill: rgb(255, 255, 255);" transform="translate(-232.480,-24.857)"></path></g></g><text dy="0.35em" fill="#ffffff" font-family="ABeeZee" font-size="45">Hello World!</text>
</g>
</g><style type="text/css">@keyframes animate-em0iv040woh { 0.00% {animation-timing-function: cubic-bezier(0.33,0.00,0.67,0.00);transform: translate(0.00px,0.00px) rotate(0.00deg) scale(1.00, 1.00) skew(0deg, 0.00deg) ;opacity: 1.00;}48.00% {transform: translate(0.00px,0.00px) rotate(0.00deg) ;opacity: 1.00;}50.00% {animation-timing-function: cubic-bezier(0.33,0.00,0.67,0.00);transform: translate(0.00px,0.00px) rotate(0.00deg) ;opacity: 0.00;}100.00% {animation-timing-function: cubic-bezier(0.33,0.00,0.67,0.00);transform: translate(0.00px,0.00px) rotate(0.00deg) ;opacity: 0.00;} }</style><!-- [ldio] generated by https://loading.io --></svg>
